<svg width="38" height="30" viewBox="0 0 38 30" fill="none" xmlns="http://www.w3.org/2000/svg">
<path d="M37 8.57627V26C37 27.6569 35.6569 29 34 29H4C2.34315 29 1 27.6569 1 26V7.65735C1 6.508 1.93173 5.57627 3.08108 5.57627H5.65369C6.3147 5.57627 6.87641 5.1511 7.08027 4.55932H10.6826C11.0171 5.18431 11.6691 5.57627 12.3804 5.57627H13.6308C15.4468 5.57627 16.9189 4.10412 16.9189 2.28814C16.9189 1.57672 17.4956 1 18.2071 1H27.4956C28.2071 1 28.7838 1.57672 28.7838 2.28814C28.7838 4.10412 30.2559 5.57627 32.0719 5.57627H33.25H34C35.6569 5.57627 37 6.91942 37 8.57627Z" stroke="#949494" stroke-width="2"/>
<rect x="18.6818" y="4.59091" width="8.09091" height="1.72727" rx="0.5" stroke="#949494"/>
<circle cx="22.7273" cy="16.8182" r="8.59091" stroke="#949494"/>
<circle cx="22.7273" cy="16.8182" r="4.95455" stroke="#949494"/>
<circle cx="31.3636" cy="10" r="0.863636" stroke="#949494"/>
</svg>
